<svg width="52" height="53" viewBox="0 0 52 53" fill="none" xmlns="http://www.w3.org/2000/svg">
<rect y="0.5" width="52" height="52" rx="14" fill="#E6F6EC"/>
<path fill-rule="evenodd" clip-rule="evenodd" d="M16.7613 20.5V18.5H22.0495L22.7929 20.5H16.7613ZM14 20.5V17.5C14 16.3954 14.8242 15.5 15.8409 15.5H22.6704C23.421 15.5 24.0963 15.995 24.3774 16.7511L25.7709 20.5H36C37.1046 20.5 38 21.3954 38 22.5V35.5C38 36.6046 37.1046 37.5 36 37.5H16C14.8954 37.5 14 36.6046 14 35.5V21.5V20.5ZM17 23.5V34.5H35V23.5H24.1573H17Z" fill="#16A75C"/>
<path fill-rule="evenodd" clip-rule="evenodd" d="M20 26.5C20 25.9477 20.4477 25.5 21 25.5H30C30.5523 25.5 31 25.9477 31 26.5C31 27.0523 30.5523 27.5 30 27.5H21C20.4477 27.5 20 27.0523 20 26.5Z" fill="#FF9500"/>
<path fill-rule="evenodd" clip-rule="evenodd" d="M20 31.5C20 30.9477 20.4477 30.5 21 30.5H26C26.5523 30.5 27 30.9477 27 31.5C27 32.0523 26.5523 32.5 26 32.5H21C20.4477 32.5 20 32.0523 20 31.5Z" fill="#FF9500"/>
</svg>
