<svg width="53" height="53" viewBox="0 0 53 53" fill="none" xmlns="http://www.w3.org/2000/svg">
<rect x="0.666748" y="0.5" width="52" height="52" rx="14" fill="#E6F6EC"/>
<path d="M24.2848 30.9976C24.8388 31.3299 25.6143 31.5515 26.5006 31.5515C27.387 31.5515 28.1625 31.3299 28.7165 30.9976" stroke="#FF9500" stroke-width="1.64147" stroke-linecap="round" stroke-linejoin="round"/>
<path d="M34.2932 20.4361C35.2855 21.6799 35.9619 23.1454 36.2647 24.7075C36.635 24.8869 36.9474 25.1669 37.1659 25.5156C37.3844 25.8643 37.5003 26.2674 37.5003 26.6789C37.5003 27.0904 37.3844 27.4936 37.1659 27.8423C36.9474 28.1909 36.635 28.471 36.2647 28.6504C35.7919 30.8556 34.5771 32.832 32.8231 34.2498C31.0691 35.6676 28.8819 36.441 26.6266 36.441C24.3712 36.441 22.1841 35.6676 20.4301 34.2498C18.6761 32.832 17.4613 30.8556 16.9885 28.6504C16.6181 28.471 16.3058 28.1909 16.0873 27.8423C15.8687 27.4936 15.7528 27.0904 15.7528 26.6789C15.7528 26.2674 15.8687 25.8643 16.0873 25.5156C16.3058 25.1669 16.6181 24.8869 16.9885 24.7075C17.4422 22.4847 18.6487 20.4865 20.4046 19.0499C22.1604 17.6133 24.358 16.8264 26.6266 16.8218C28.8171 16.8218 30.4599 18.0265 30.4599 19.5599C30.4599 21.0932 29.4742 22.298 28.2694 22.298C27.3932 22.298 26.6266 21.8599 26.6266 21.2027" stroke="#16A75C" stroke-width="2.434" stroke-linecap="round" stroke-linejoin="round"/>
<ellipse cx="22.9846" cy="26.0082" rx="1.30023" ry="1.30023" fill="#FF9500"/>
<ellipse cx="30.0167" cy="26.0082" rx="1.30023" ry="1.30023" fill="#FF9500"/>
</svg>
