<svg width="53" height="53" viewBox="0 0 53 53" fill="none" xmlns="http://www.w3.org/2000/svg">
<rect x="0.166748" y="0.5" width="52" height="52" rx="14" fill="#E6F6EC"/>
<path d="M13.851 29C13.851 24.5217 13.851 22.2825 15.2568 20.8912C16.6627 19.5 18.9255 19.5 23.451 19.5H28.251C32.7764 19.5 35.0392 19.5 36.4451 20.8912C37.851 22.2825 37.851 24.5217 37.851 29C37.851 33.4783 37.851 35.7175 36.4451 37.1088C35.0392 38.5 32.7764 38.5 28.251 38.5H23.451C18.9255 38.5 16.6627 38.5 15.2568 37.1088C13.851 35.7175 13.851 33.4783 13.851 29Z" stroke="#16A75C" stroke-width="2.6"/>
<path d="M30.851 19.5C30.851 17.143 30.851 15.9645 30.1919 15.2322C29.5329 14.5 28.4723 14.5 26.351 14.5C24.2296 14.5 23.169 14.5 22.51 15.2322C21.851 15.9645 21.851 17.143 21.851 19.5" stroke="#16A75C" stroke-width="2.6"/>
<path fill-rule="evenodd" clip-rule="evenodd" d="M33.479 24.8144C33.9703 25.2376 33.9756 25.9283 33.4907 26.3572L27.8986 31.3026C27.6637 31.5103 27.3432 31.6273 27.0088 31.6273C26.6745 31.6273 26.354 31.5103 26.1191 31.3026L24.0483 29.4713L20.9907 32.1754C20.5058 32.6042 19.7143 32.6088 19.2229 32.1856C18.7316 31.7624 18.7263 31.0717 19.2112 30.6428L23.1586 27.1519C23.3935 26.9442 23.7139 26.8273 24.0483 26.8273C24.3827 26.8273 24.7032 26.9442 24.938 27.1519L27.0088 28.9833L31.7112 24.8246C32.1961 24.3958 32.9876 24.3912 33.479 24.8144Z" fill="#FF9500"/>
</svg>
