<svg width="17" height="17" viewBox="0 0 17 17" fill="none" xmlns="http://www.w3.org/2000/svg">
<path d="M13.1662 15.1668H3.83285C3.47922 15.1668 3.14008 15.0264 2.89004 14.7763C2.63999 14.5263 2.49951 14.1871 2.49951 13.8335V4.50016C2.49951 4.14654 2.63999 3.8074 2.89004 3.55735C3.14008 3.30731 3.47922 3.16683 3.83285 3.16683H5.16618V1.8335H6.49951V3.16683H10.4995V1.8335H11.8328V3.16683H13.1662C13.5198 3.16683 13.8589 3.30731 14.109 3.55735C14.359 3.8074 14.4995 4.14654 14.4995 4.50016V13.8335C14.4995 14.1871 14.359 14.5263 14.109 14.7763C13.8589 15.0264 13.5198 15.1668 13.1662 15.1668ZM3.83285 7.16683V13.8335H13.1662V7.16683H3.83285ZM3.83285 4.50016V5.8335H13.1662V4.50016H3.83285Z" fill="#B9C3D3"/>
</svg>
