<svg width="53" height="53" viewBox="0 0 53 53" fill="none" xmlns="http://www.w3.org/2000/svg">
<rect x="0.666504" y="0.5" width="52" height="52" rx="14" fill="#E6F6EC"/>
<g clip-path="url(#clip0_12167_6107)">
<g clip-path="url(#clip1_12167_6107)">
<path d="M38.4997 26.5003C38.4997 33.0357 33.2017 38.3337 26.6663 38.3337C20.131 38.3337 14.833 33.0357 14.833 26.5003C14.833 19.965 20.131 14.667 26.6663 14.667C33.2017 14.667 38.4997 19.965 38.4997 26.5003Z" stroke="#16A75C" stroke-width="3"/>
<line x1="26.7778" y1="17.1309" x2="26.7778" y2="12.0105" stroke="#16A75C" stroke-width="3" stroke-linecap="round"/>
<line x1="34.771" y1="16.2742" x2="36.485" y2="14.5602" stroke="#16A75C" stroke-width="3" stroke-linecap="round"/>
<line x1="17.073" y1="14.7861" x2="18.6708" y2="16.3853" stroke="#16A75C" stroke-width="3" stroke-linecap="round"/>
<line x1="18.3879" y1="36.3274" x2="17.0729" y2="37.6505" stroke="#16A75C" stroke-width="3" stroke-linecap="round"/>
<line x1="36.4853" y1="37.461" x2="35.17" y2="36.1816" stroke="#16A75C" stroke-width="3" stroke-linecap="round"/>
<line x1="26.7798" y1="41" x2="26.7798" y2="35.8796" stroke="#16A75C" stroke-width="3" stroke-linecap="round"/>
<line x1="36.0459" y1="25" x2="41.1663" y2="25" stroke="#16A75C" stroke-width="3" stroke-linecap="round"/>
<line x1="12.1665" y1="25" x2="17.2869" y2="25" stroke="#16A75C" stroke-width="3" stroke-linecap="round"/>
<ellipse cx="23.7471" cy="22.7315" rx="2.39847" ry="2.39847" fill="#FF9500"/>
<ellipse cx="29.065" cy="30.3379" rx="2.39847" ry="2.39847" fill="#FF9500"/>
<ellipse cx="30.7818" cy="23.4132" rx="1.71688" ry="1.71688" fill="#FF9500"/>
</g>
</g>
<defs>
<clipPath id="clip0_12167_6107">
<rect width="32" height="32" fill="white" transform="translate(10.6665 10.5)"/>
</clipPath>
<clipPath id="clip1_12167_6107">
<rect width="32" height="32" fill="white" transform="translate(10.6665 10.5)"/>
</clipPath>
</defs>
</svg>
