<svg width="52" height="53" viewBox="0 0 52 53" fill="none" xmlns="http://www.w3.org/2000/svg">
<rect y="0.5" width="52" height="52" rx="14" fill="#E6F6EC"/>
<path fill-rule="evenodd" clip-rule="evenodd" d="M37.0536 14.4323C37.6433 15.0142 37.6496 15.964 37.0677 16.5536L30.3571 23.3536C30.0753 23.6392 29.6907 23.8 29.2895 23.8C28.8882 23.8 28.5037 23.6392 28.2218 23.3536L25.7368 20.8355L22.0677 24.5536C21.4858 25.1433 20.536 25.1496 19.9464 24.5677C19.3567 23.9858 19.3504 23.036 19.9323 22.4464L24.6692 17.6464C24.951 17.3608 25.3356 17.2 25.7368 17.2C26.1381 17.2 26.5226 17.3608 26.8045 17.6464L29.2895 20.1645L34.9323 14.4464C35.5142 13.8567 36.464 13.8504 37.0536 14.4323Z" fill="#FF9500"/>
<path fill-rule="evenodd" clip-rule="evenodd" d="M15.5 15.5C16.3284 15.5 17 16.1716 17 17L17 35.5H19V33C19 32.1716 19.6716 31.5 20.5 31.5C21.3284 31.5 22 32.1716 22 33V35.5H25V30C25 29.1716 25.6716 28.5 26.5 28.5C27.3284 28.5 28 29.1716 28 30V35.5H32V27C32 26.1716 32.6716 25.5 33.5 25.5C34.3284 25.5 35 26.1716 35 27V35.5H36.5C37.3284 35.5 38 36.1716 38 37C38 37.8284 37.3284 38.5 36.5 38.5L15.5 38.5C14.6716 38.5 14 37.8284 14 37V17C14 16.1716 14.6716 15.5 15.5 15.5Z" fill="#16A75C"/>
</svg>
