<svg width="16" height="16" viewBox="0 0 16 16" fill="none" xmlns="http://www.w3.org/2000/svg">
  <path fill-rule="evenodd" clip-rule="evenodd" d="M13.3332 2H2.6665C1.56521 2 0.67317 2.89823 0.67317 4L0.666504 11.9994C0.666504 13.1015 1.56498 14 2.6665 14H13.3332C14.4347 14 15.3332 13.1015 15.3332 12V4C15.3332 2.89848 14.4347 2 13.3332 2ZM3.65588 6.0001C3.34051 5.81008 3.23889 5.40038 3.42891 5.08502C3.61893 4.76965 4.02863 4.66803 4.34399 4.85805L7.9803 7.04902L11.7744 4.76296C12.0903 4.57264 12.5006 4.67442 12.691 4.99029C12.8809 5.30545 12.78 5.71483 12.4655 5.90574L8.00647 8.61201L8.0023 8.61893L3.65588 6.0001Z" fill="white" />
</svg>
