<svg width="17" height="16" viewBox="0 0 17 16" fill="none" xmlns="http://www.w3.org/2000/svg">
<path d="M8.50004 0.977844C8.15171 0.97784 7.80312 1.06753 7.49223 1.24868V1.24998L2.49483 4.16534C2.08595 4.40375 1.83337 4.8431 1.83337 5.31639V12C1.83337 12.7287 2.438 13.3333 3.16671 13.3333H13.8334C14.5621 13.3333 15.1667 12.7287 15.1667 12V5.31639C15.1667 4.84373 14.914 4.40368 14.5052 4.16534L9.50785 1.24998C9.19709 1.06862 8.84837 0.977849 8.50004 0.977844ZM8.50004 2.30988C8.61592 2.30993 8.73208 2.34038 8.83598 2.40102L13.8334 5.31639V5.31769V5.34894L9.20447 8.22915C8.77313 8.49781 8.22695 8.49781 7.79561 8.22915L3.16671 5.34894V5.31639L8.1641 2.40102C8.26854 2.34017 8.38416 2.30982 8.50004 2.30988ZM8.50004 3.47133C8.41462 3.47133 8.32936 3.50399 8.26436 3.56899L7.06905 4.7643C6.85905 4.9743 7.00739 5.33331 7.30473 5.33331H7.83337V6.66665C7.83337 7.03465 8.13204 7.33331 8.50004 7.33331C8.86804 7.33331 9.16671 7.03465 9.16671 6.66665V5.33331H9.69535C9.99269 5.33331 10.141 4.9743 9.93103 4.7643L8.73572 3.56899C8.67038 3.50399 8.58546 3.47133 8.50004 3.47133Z" fill="white"/>
</svg>
