<svg width="53" height="53" viewBox="0 0 53 53" fill="none" xmlns="http://www.w3.org/2000/svg">
<rect x="0.333496" y="0.5" width="52" height="52" rx="14" fill="#E6F6EC"/>
<g clip-path="url(#clip0_12167_6081)">
<path d="M25.8335 37V20.7958L34.5343 24.612C34.7161 24.6917 34.8335 24.8714 34.8335 25.0699V37H25.8335Z" stroke="#FF9500" stroke-width="3"/>
<path fill-rule="evenodd" clip-rule="evenodd" d="M31.3335 28.5H29.3335V26.5H31.3335V28.5Z" fill="#FF9500"/>
<path fill-rule="evenodd" clip-rule="evenodd" d="M31.3335 32.5H29.3335V30.5H31.3335V32.5Z" fill="#FF9500"/>
<path fill-rule="evenodd" clip-rule="evenodd" d="M40.3335 37C40.3335 37.8284 39.6619 38.5 38.8335 38.5L13.8335 38.5C13.0051 38.5 12.3335 37.8284 12.3335 37C12.3335 36.1716 13.0051 35.5 13.8335 35.5L38.8335 35.5C39.6619 35.5 40.3335 36.1716 40.3335 37Z" fill="#16A75C"/>
<path d="M16.8335 20.0205C16.8335 19.8214 16.9517 19.6412 17.1344 19.5619L25.1344 16.0897C25.4646 15.9463 25.8335 16.1884 25.8335 16.5483V37H16.8335V20.0205Z" stroke="#16A75C" stroke-width="3" stroke-linejoin="round"/>
<path fill-rule="evenodd" clip-rule="evenodd" d="M22.3335 31.5H20.3335V29.5H22.3335V31.5Z" fill="#16A75C"/>
<path fill-rule="evenodd" clip-rule="evenodd" d="M22.3335 26.5H20.3335V24.5H22.3335V26.5Z" fill="#16A75C"/>
</g>
<defs>
<clipPath id="clip0_12167_6081">
<rect width="28" height="28" fill="white" transform="translate(12.3335 12.5)"/>
</clipPath>
</defs>
</svg>
