<svg width="24" height="24" viewBox="0 0 24 24" fill="none" xmlns="http://www.w3.org/2000/svg">
<path d="M15.254 2C15.8074 2.00002 16.3414 2.20401 16.7539 2.57297C17.1664 2.94194 17.4285 3.44999 17.49 4H18.758C19.1972 4.00002 19.6203 4.16517 19.9434 4.46268C20.2664 4.76019 20.4658 5.1683 20.502 5.606L20.508 5.75V8.75C20.508 9.58014 20.1904 10.3788 19.6203 10.9822C19.0502 11.5856 18.2708 11.948 17.442 11.995L17.232 12.001C16.8987 13.04 16.277 13.9629 15.4394 14.6623C14.6019 15.3616 13.5828 15.8085 12.501 15.951V17.5H14.254C15.0839 17.5002 15.8824 17.8179 16.4856 18.388C17.0888 18.9581 17.451 19.7374 17.498 20.566L17.504 20.75V21.25C17.5039 21.4314 17.4382 21.6066 17.3188 21.7432C17.1995 21.8798 17.0347 21.9686 16.855 21.993L16.754 22H6.74997C6.56856 22.0002 6.39322 21.9347 6.25642 21.8156C6.11962 21.6964 6.03064 21.5317 6.00597 21.352L5.99997 21.25V20.75C5.9999 19.92 6.31737 19.1215 6.88728 18.5181C7.45719 17.9147 8.23634 17.5522 9.06497 17.505L9.24997 17.5H11V15.951C9.91851 15.8082 8.89988 15.3611 8.06266 14.6618C7.22545 13.9625 6.6041 13.0397 6.27097 12.001L6.24597 12C5.38402 12 4.55737 11.6576 3.94787 11.0481C3.33838 10.4386 2.99597 9.61195 2.99597 8.75V5.75C2.99597 4.784 3.77997 4 4.74597 4H6.01397C6.07548 3.44982 6.33767 2.94163 6.75039 2.57264C7.1631 2.20365 7.69736 1.99977 8.25097 2H15.254ZM18.758 5.5H17.504V10.483C17.8949 10.4272 18.2555 10.2408 18.5271 9.95415C18.7987 9.66748 18.9653 9.29738 19 8.904L19.007 8.75V5.75C19.0069 5.69368 18.9878 5.63904 18.9527 5.59493C18.9177 5.55083 18.8688 5.51984 18.814 5.507L18.757 5.5H18.758ZM5.99997 5.5H4.74597C4.67967 5.5 4.61608 5.52634 4.5692 5.57322C4.52231 5.62011 4.49597 5.6837 4.49597 5.75V8.75C4.49591 9.17172 4.64815 9.57929 4.92467 9.8977C5.2012 10.2161 5.5834 10.424 6.00097 10.483V5.5H5.99997Z" fill="#069550"/>
</svg>
