<svg width="52" height="53" viewBox="0 0 52 53" fill="none" xmlns="http://www.w3.org/2000/svg">
<rect y="0.5" width="52" height="52" rx="14" fill="#E6F6EC"/>
<mask id="path-2-inside-1_10444_65394" fill="white">
<path fill-rule="evenodd" clip-rule="evenodd" d="M32 38.5909H12C12.2488 33.5302 16.6308 29.5 22 29.5C27.3692 29.5 31.7512 33.5302 32 38.5909Z"/>
</mask>
<path d="M12 38.5909L9.00362 38.4436C8.96329 39.2638 9.26097 40.0647 9.82722 40.6595C10.3935 41.2543 11.1788 41.5909 12 41.5909V38.5909ZM32 38.5909V41.5909C32.8212 41.5909 33.6065 41.2543 34.1728 40.6595C34.739 40.0647 35.0367 39.2638 34.9964 38.4436L32 38.5909ZM12 41.5909H32V35.5909H12V41.5909ZM14.9964 38.7382C15.161 35.391 18.1117 32.5 22 32.5V26.5C15.1499 26.5 9.3367 31.6693 9.00362 38.4436L14.9964 38.7382ZM22 32.5C25.8883 32.5 28.839 35.391 29.0036 38.7382L34.9964 38.4436C34.6633 31.6693 28.8501 26.5 22 26.5V32.5Z" fill="#16A75C" mask="url(#path-2-inside-1_10444_65394)"/>
<circle cx="22" cy="22.5" r="3.5" stroke="#16A75C" stroke-width="3"/>
<path fill-rule="evenodd" clip-rule="evenodd" d="M36 32.1632C37.1825 31.6015 38 30.3962 38 29C38 27.067 36.433 25.5 34.5 25.5C32.567 25.5 31 27.067 31 29C31 30.3962 31.8175 31.6015 33 32.1632L33 37C33 37.8284 33.6716 38.5 34.5 38.5C35.3284 38.5 36 37.8284 36 37L36 32.1632Z" fill="#FF9500"/>
</svg>
