<svg width="52" height="53" viewBox="0 0 52 53" fill="none" xmlns="http://www.w3.org/2000/svg">
<rect y="0.5" width="52" height="52" rx="14" fill="#E6F6EC"/>
<g clip-path="url(#clip0_10444_65168)">
<path fill-rule="evenodd" clip-rule="evenodd" d="M21 20.5V17.5H31V20.5H21ZM18 20.5V16.5C18 15.3954 18.8954 14.5 20 14.5H32C33.1046 14.5 34 15.3954 34 16.5V20.5H36C38.2091 20.5 40 22.2909 40 24.5V36.5C40 38.7091 38.2091 40.5 36 40.5H16C13.7909 40.5 12 38.7091 12 36.5V24.5C12 22.2909 13.7909 20.5 16 20.5H18ZM32 23.5H20H16C15.4477 23.5 15 23.9477 15 24.5V36.5C15 37.0523 15.4477 37.5 16 37.5H36C36.5523 37.5 37 37.0523 37 36.5V24.5C37 23.9477 36.5523 23.5 36 23.5H32Z" fill="#16A75C"/>
<path fill-rule="evenodd" clip-rule="evenodd" d="M27.6667 27.1667C27.6667 26.2462 26.9205 25.5 26 25.5C25.0795 25.5 24.3333 26.2462 24.3333 27.1667V28.8333H22.6667C21.7462 28.8333 21 29.5795 21 30.5C21 31.4205 21.7462 32.1667 22.6667 32.1667H24.3333V33.8333C24.3333 34.7538 25.0795 35.5 26 35.5C26.9205 35.5 27.6667 34.7538 27.6667 33.8333V32.1667H29.3333C30.2538 32.1667 31 31.4205 31 30.5C31 29.5795 30.2538 28.8333 29.3333 28.8333H27.6667V27.1667Z" fill="#FF9500"/>
</g>
<defs>
<clipPath id="clip0_10444_65168">
<rect width="28" height="28" fill="white" transform="translate(12 12.5)"/>
</clipPath>
</defs>
</svg>
