<svg width="53" height="53" viewBox="0 0 53 53" fill="none" xmlns="http://www.w3.org/2000/svg">
<rect x="0.5" y="0.5" width="52" height="52" rx="14" fill="#E6F6EC"/>
<g clip-path="url(#clip0_18076_654)">
<mask id="path-2-inside-1_18076_654" fill="white">
<path fill-rule="evenodd" clip-rule="evenodd" d="M32.5 38.5909H12.5C12.7488 33.5302 17.1308 29.5 22.5 29.5C27.8692 29.5 32.2512 33.5302 32.5 38.5909Z"/>
</mask>
<path d="M12.5 38.5909L9.50362 38.4436C9.46329 39.2638 9.76097 40.0647 10.3272 40.6595C10.8935 41.2543 11.6788 41.5909 12.5 41.5909V38.5909ZM32.5 38.5909V41.5909C33.3212 41.5909 34.1065 41.2543 34.6728 40.6595C35.239 40.0647 35.5367 39.2638 35.4964 38.4436L32.5 38.5909ZM12.5 41.5909H32.5V35.5909H12.5V41.5909ZM15.4964 38.7382C15.661 35.391 18.6117 32.5 22.5 32.5V26.5C15.6499 26.5 9.8367 31.6693 9.50362 38.4436L15.4964 38.7382ZM22.5 32.5C26.3883 32.5 29.339 35.391 29.5036 38.7382L35.4964 38.4436C35.1633 31.6693 29.3501 26.5 22.5 26.5V32.5Z" fill="#16A75C" mask="url(#path-2-inside-1_18076_654)"/>
<circle cx="22.5" cy="22.5" r="3.5" stroke="#16A75C" stroke-width="3"/>
<path d="M39.975 32.7H39.8V30.6C39.8 29.4422 38.8578 28.5 37.7 28.5H36.3C35.1422 28.5 34.2 29.4422 34.2 30.6V32.7H34.025C33.8859 32.7006 33.7527 32.756 33.6544 32.8544C33.556 32.9527 33.5006 33.0859 33.5 33.225V38.475C33.5 38.7634 33.7366 39 34.025 39H39.975C40.2634 39 40.5 38.7634 40.5 38.475V33.225C40.4994 33.0859 40.444 32.9527 40.3456 32.8544C40.2473 32.756 40.1141 32.7006 39.975 32.7ZM35.6 30.6C35.6 30.2143 35.9143 29.9 36.3 29.9H37.7C38.0857 29.9 38.4 30.2143 38.4 30.6V32.7H35.6V30.6Z" fill="#FF9500"/>
</g>
<defs>
<clipPath id="clip0_18076_654">
<rect width="28" height="28" fill="white" transform="translate(12.5 12.5)"/>
</clipPath>
</defs>
</svg>
