<svg width="24" height="24" viewBox="0 0 24 24" fill="none" xmlns="http://www.w3.org/2000/svg">
<path d="M12.9088 12.9995C13.6381 12.9995 14.3375 13.2892 14.8532 13.8049C15.3689 14.3206 15.6587 15.0201 15.6587 15.7494L15.6568 17.1216C15.8457 20.4883 13.2525 22.1676 8.443 22.1676C3.64996 22.1676 1 20.5103 1 17.1692V15.7494C1 15.0201 1.28972 14.3206 1.80542 13.8049C2.32112 13.2892 3.02056 12.9995 3.74988 12.9995H12.9088ZM20.2418 12.9995C20.9711 12.9995 21.6705 13.2892 22.1862 13.8049C22.7019 14.3206 22.9917 15.0201 22.9917 15.7494V16.7146C23.1567 19.7349 20.8651 21.2491 16.677 21.2491C16.1087 21.2491 15.5743 21.2216 15.0748 21.1666C16.0592 20.2573 16.5854 19.0245 16.5835 17.4662L16.5716 17.0702L16.5753 15.7494C16.5758 15.229 16.4653 14.7146 16.2511 14.2404C16.0369 13.7662 15.724 13.3431 15.3333 12.9995H20.2427H20.2418ZM8.333 2C9.54876 2 10.7147 2.48296 11.5744 3.34263C12.4341 4.20231 12.917 5.36828 12.917 6.58404C12.917 7.79981 12.4341 8.96577 11.5744 9.82545C10.7147 10.6851 9.54876 11.1681 8.333 11.1681C7.11724 11.1681 5.95127 10.6851 5.09159 9.82545C4.23192 8.96577 3.74896 7.79981 3.74896 6.58404C3.74896 5.36828 4.23192 4.20231 5.09159 3.34263C5.95127 2.48296 7.11724 2 8.333 2ZM17.4993 3.83325C18.4717 3.83325 19.4043 4.21954 20.0919 4.90714C20.7795 5.59474 21.1658 6.52733 21.1658 7.49975C21.1658 8.47217 20.7795 9.40475 20.0919 10.0924C19.4043 10.78 18.4717 11.1662 17.4993 11.1662C16.5268 11.1662 15.5942 10.78 14.9066 10.0924C14.219 9.40475 13.8328 8.47217 13.8328 7.49975C13.8328 6.52733 14.219 5.59474 14.9066 4.90714C15.5942 4.21954 16.5268 3.83325 17.4993 3.83325Z" fill="#069550"/>
</svg>
