<svg width="53" height="53" viewBox="0 0 53 53" fill="none" xmlns="http://www.w3.org/2000/svg">
<rect x="0.833374" y="0.5" width="52" height="52" rx="14" fill="#E6F6EC"/>
<path fill-rule="evenodd" clip-rule="evenodd" d="M38.7604 17.0992C38.783 16.815 38.7944 16.53 38.7946 16.2449V14.5361L35.8043 16.2449C33.5859 16.2453 32.8801 15.3412 31.1053 16.6721C29.3304 18.003 26.5822 19.7885 25.9602 21.9179C25.0027 20.6828 23.775 19.6833 22.3714 18.9961C20.9677 18.3089 19.4253 17.9523 17.8625 17.9536H14.8722V19.6624C14.8722 22.3815 15.9524 24.9892 17.8751 26.912C19.7978 28.8347 22.4055 29.9148 25.1247 29.9148H25.5518V37.177C25.5518 37.5169 25.6869 37.8428 25.9272 38.0832C26.1675 38.3235 26.4935 38.4585 26.8334 38.4585C27.1733 38.4585 27.4993 38.3235 27.7396 38.0832C27.9799 37.8428 28.115 37.5169 28.115 37.177V26.4973H28.5421C31.1136 26.4977 33.5913 25.5318 35.484 23.791C37.3767 22.0502 38.5461 19.6618 38.7604 17.0992ZM28.1611 23.9342C28.3713 22.0543 28.8408 20.069 30.2509 18.808C31.661 17.547 33.9126 17.0989 35.8043 17.0992H36.1854C35.9752 18.9792 35.5056 21.3917 34.0956 22.6527C32.6855 23.9136 30.4338 23.9346 28.5421 23.9342H28.1611ZM17.8625 20.5167C19.7542 20.5164 21.5796 21.2133 22.9897 22.4743C24.3997 23.7353 25.2955 25.4718 25.5057 27.3517H25.1247C23.233 27.3521 21.4076 26.6551 19.9975 25.3942C18.5874 24.1332 17.6916 22.3967 17.4814 20.5167H17.8625Z" fill="#16A75C"/>
<path d="M29.8299 18.6215L29.8629 18.5922L29.894 18.561C30.6567 17.7984 33.1249 16.0966 37.2946 16.004L37.2946 16.2439C37.2944 16.4896 37.2849 16.7353 37.266 16.9803C37.0861 19.1775 36.1082 21.2177 34.5367 22.6997C33.0613 24.091 31.2217 25.2978 27.749 25.4774L27.675 25.3296C27.675 25.3296 27.675 25.3295 27.675 25.3295C27.5187 25.0169 27.1448 24.1774 27.2314 23.0441C27.3144 21.9569 27.8364 20.3935 29.8299 18.6215Z" stroke="#FF9500" stroke-width="3"/>
<path d="M26.8334 35.5L30.2975 38.5H23.3693L26.8334 35.5Z" fill="#16A75C"/>
</svg>
