<svg width="16" height="16" viewBox="0 0 16 16" fill="none" xmlns="http://www.w3.org/2000/svg">
  <path fill-rule="evenodd" clip-rule="evenodd" d="M8.00016 1.33301C5.42016 1.33301 3.3335 3.41967 3.3335 5.99967C3.3335 8.77967 6.28016 12.613 7.4935 14.073C7.76016 14.393 8.24683 14.393 8.5135 14.073C9.72016 12.613 12.6668 8.77967 12.6668 5.99967C12.6668 3.41967 10.5802 1.33301 8.00016 1.33301ZM8.00016 7.66634C7.08016 7.66634 6.3335 6.91967 6.3335 5.99967C6.3335 5.07967 7.08016 4.33301 8.00016 4.33301C8.92016 4.33301 9.66683 5.07967 9.66683 5.99967C9.66683 6.91967 8.92016 7.66634 8.00016 7.66634Z" fill="white" fill-opacity="0.8" />
</svg>
