<svg width="18" height="18" viewBox="0 0 18 18" fill="none" xmlns="http://www.w3.org/2000/svg">
<path d="M7.36 4.93499C7.38507 5.09074 7.3771 5.25002 7.33661 5.40248C7.29613 5.55495 7.22403 5.6972 7.125 5.81999C7.73772 6.86732 8.58065 7.76154 9.59 8.43499C9.76 8.54999 9.935 8.64999 10.09 8.74999C10.2488 8.57442 10.4583 8.45265 10.6895 8.40158C10.9207 8.35051 11.162 8.37267 11.38 8.46499C12.1594 7.43272 12.6914 6.2353 12.935 4.96499C11.1329 4.32851 9.16886 4.31794 7.36 4.93499Z" fill="white"/>
<path d="M8.875 1C7.01848 1 5.23801 1.7375 3.92525 3.05025C2.6125 4.36301 1.875 6.14348 1.875 8C1.875 8.225 1.875 8.445 1.91 8.665C2.03885 10.0151 2.55713 11.2988 3.40186 12.3598C4.24658 13.4209 5.38137 14.2137 6.66826 14.6419C7.95515 15.0702 9.33872 15.1153 10.6508 14.7719C11.9629 14.4285 13.1469 13.7113 14.059 12.7075C14.9711 11.7038 15.5719 10.4567 15.7885 9.1178C16.0051 7.77894 15.8281 6.406 15.2789 5.16587C14.7298 3.92574 13.8323 2.87184 12.6954 2.13228C11.5585 1.39272 10.2313 0.999354 8.875 1ZM14.05 10.545C13.3211 10.5425 12.5954 10.4484 11.89 10.265C11.7224 10.4928 11.4764 10.6505 11.1995 10.7077C10.9225 10.765 10.6342 10.7177 10.39 10.575C9.36207 11.4022 8.1685 11.999 6.89 12.325C6.85122 12.5308 6.75792 12.7224 6.61984 12.8798C6.48176 13.0372 6.30397 13.1547 6.105 13.22L5.96 13.25C5.31314 12.8924 4.73838 12.4177 4.265 11.85H4.595C4.64282 11.6119 4.76384 11.3947 4.94115 11.2288C5.11845 11.0629 5.34318 10.9565 5.58391 10.9245C5.82464 10.8926 6.06934 10.9366 6.28379 11.0506C6.49825 11.1645 6.67173 11.3426 6.78 11.56C7.91345 11.2608 8.97246 10.7296 9.89 10C9.80992 9.81606 9.77891 9.6145 9.8 9.415C9.59 9.295 9.38 9.17 9.175 9.035C8.08573 8.31277 7.17176 7.3561 6.5 6.235C6.29923 6.29012 6.0873 6.28994 5.88662 6.23449C5.68595 6.17904 5.50399 6.07038 5.36 5.92C4.42996 6.6013 3.58994 7.39763 2.86 8.29V8.005C2.86242 7.71535 2.88582 7.42627 2.93 7.14C3.52975 6.40398 4.23783 5.76334 5.03 5.24C5.00188 5.01927 5.03897 4.79513 5.1367 4.59522C5.23443 4.39531 5.38853 4.22838 5.58 4.115C5.52 3.9 5.46 3.685 5.415 3.465C5.415 3.395 5.415 3.32 5.36 3.145C5.57826 2.98471 5.80711 2.83938 6.045 2.71C6.095 3.005 6.115 3.16 6.15 3.315C6.185 3.47 6.25 3.74 6.31 3.95H6.435C6.64929 3.99956 6.84518 4.10877 7 4.265C8.95731 3.57474 11.0898 3.56241 13.055 4.23V3.73C13.6132 4.27997 14.0582 4.93395 14.365 5.655C14.1217 5.51167 13.875 5.38167 13.625 5.265C13.3412 6.60414 12.7621 7.86306 11.93 8.95C12.0375 9.12988 12.0945 9.33544 12.095 9.545C12.917 9.71515 13.7558 9.79064 14.595 9.77C14.5112 10.0317 14.4092 10.2874 14.29 10.535L14.05 10.545Z" fill="white"/>
</svg>
