<svg width="17" height="17" viewBox="0 0 17 17" fill="none" xmlns="http://www.w3.org/2000/svg">
<path d="M11.5002 2.29297L9.23968 4.55347L5.86968 5.51747C5.54463 5.6049 5.24641 5.77176 5.00185 6.00305C4.7573 6.23434 4.57408 6.52279 4.46868 6.84247L2.43018 13.137L3.14718 13.854L3.86418 14.571L10.1607 12.531C10.4787 12.4257 10.7657 12.2433 10.996 12C11.2264 11.7568 11.3929 11.4603 11.4807 11.137L12.4452 7.76297L14.7072 5.49997L11.5002 2.29297ZM11.5002 3.70697L13.2932 5.49997L12.0002 6.79297L10.2072 4.99997L11.5002 3.70697ZM9.35518 5.56247L11.4377 7.64447L10.5167 10.8695C10.4725 11.0338 10.3884 11.1846 10.2719 11.3086C10.1553 11.4326 10.01 11.5258 9.84868 11.58L4.34518 13.3625L7.24268 10.465C7.32662 10.4878 7.41319 10.4996 7.50018 10.5C7.76539 10.5 8.01975 10.3946 8.20728 10.2071C8.39482 10.0195 8.50018 9.76518 8.50018 9.49997C8.50018 9.23475 8.39482 8.9804 8.20728 8.79286C8.01975 8.60533 7.76539 8.49997 7.50018 8.49997C7.34696 8.50014 7.19583 8.53552 7.05845 8.60338C6.92108 8.67124 6.80113 8.76975 6.70788 8.89132C6.61462 9.0129 6.55055 9.15427 6.5206 9.30453C6.49066 9.4548 6.49565 9.60994 6.53518 9.75797L3.63768 12.655L5.41918 7.15497C5.47358 6.99181 5.56775 6.84477 5.69319 6.7271C5.81862 6.60943 5.97138 6.52485 6.13768 6.48097L9.35568 5.56197L9.35518 5.56247Z" fill="#B9C3D3"/>
</svg>
