<svg width="52" height="53" viewBox="0 0 52 53" fill="none" xmlns="http://www.w3.org/2000/svg">
<rect y="0.5" width="52" height="52" rx="14" fill="#E6F6EC"/>
<path fill-rule="evenodd" clip-rule="evenodd" d="M30.5 24.5C31.3284 24.5 32 25.1716 32 26L32 31C32 31.8284 31.3284 32.5 30.5 32.5C29.6716 32.5 29 31.8284 29 31L29 26C29 25.1716 29.6716 24.5 30.5 24.5Z" fill="#FF9500"/>
<path fill-rule="evenodd" clip-rule="evenodd" d="M12.7161 20.6011C11.9665 20.9661 11.9666 22.0342 12.7161 22.3992L15.5 23.755V32.3121C15.5 34.2435 16.7325 35.9596 18.5628 36.5764L22.9659 38.0604C24.9342 38.7238 27.0658 38.7238 29.0342 38.0604L33.4372 36.5764C35.2675 35.9596 36.5 34.2435 36.5 32.3121V23.6918L39.1541 22.3992C39.9036 22.0342 39.9036 20.9661 39.1541 20.6011L26.3729 14.3763C26.0965 14.2417 25.7736 14.2417 25.4972 14.3763L12.7161 20.6011ZM33.5 25.1529L26.3729 28.6239C26.0965 28.7586 25.7736 28.7586 25.4972 28.6239L18.5 25.2161V32.3121C18.5 32.9559 18.9108 33.5279 19.5209 33.7336L23.924 35.2176C25.2708 35.6715 26.7292 35.6715 28.076 35.2176L32.4791 33.7336C33.0892 33.5279 33.5 32.9559 33.5 32.3121V25.1529ZM25.9351 25.5003L17.7216 21.5001L25.9351 17.5L34.1485 21.5001L25.9351 25.5003Z" fill="#16A75C"/>
</svg>
