<svg width="24" height="24" viewBox="0 0 24 24" fill="none" xmlns="http://www.w3.org/2000/svg">
<path d="M12 2V8C12 8.53043 12.2107 9.03914 12.5858 9.41421C12.9609 9.78929 13.4696 10 14 10H20V20C20 20.5304 19.7893 21.0391 19.4142 21.4142C19.0391 21.7893 18.5304 22 18 22H12.95C12.983 21.838 13 21.671 13 21.5V16.5C13.0001 15.9237 12.8011 15.365 12.4367 14.9185C12.0722 14.4721 11.5647 14.1653 11 14.05V13.75C11 13.0207 10.7103 12.3212 10.1945 11.8055C9.67882 11.2897 8.97935 11 8.25 11H4.75C4.49 11 4.238 11.036 4 11.104V4C4 3.46957 4.21071 2.96086 4.58579 2.58579C4.96086 2.21071 5.46957 2 6 2H12ZM13.5 2.5V8C13.5 8.13261 13.5527 8.25979 13.6464 8.35355C13.7402 8.44732 13.8674 8.5 14 8.5H19.5L13.5 2.5ZM3 15H2.5C2.10218 15 1.72064 15.158 1.43934 15.4393C1.15804 15.7206 1 16.1022 1 16.5V21.5C1 21.8978 1.15804 22.2794 1.43934 22.5607C1.72064 22.842 2.10218 23 2.5 23H10.5C10.8978 23 11.2794 22.842 11.5607 22.5607C11.842 22.2794 12 21.8978 12 21.5V16.5C12 16.1022 11.842 15.7206 11.5607 15.4393C11.2794 15.158 10.8978 15 10.5 15H10V13.75C10 13.2859 9.81563 12.8408 9.48744 12.5126C9.15925 12.1844 8.71413 12 8.25 12H4.75C4.28587 12 3.84075 12.1844 3.51256 12.5126C3.18437 12.8408 3 13.2859 3 13.75V15ZM4.5 13.75C4.5 13.6837 4.52634 13.6201 4.57322 13.5732C4.62011 13.5263 4.6837 13.5 4.75 13.5H8.25C8.3163 13.5 8.37989 13.5263 8.42678 13.5732C8.47366 13.6201 8.5 13.6837 8.5 13.75V15H4.5V13.75Z" fill="#069550"/>
</svg>
