<svg width="24" height="24" viewBox="0 0 24 24" fill="none" xmlns="http://www.w3.org/2000/svg">
<g clip-path="url(#clip0)">
<path d="M22.5868 0.916718C22.5749 0.680149 22.4726 0.457186 22.301 0.293959C22.1293 0.130733 21.9015 0.0397355 21.6646 0.039795H19.0348C18.8043 0.0397815 18.5822 0.125963 18.4121 0.2814C18.242 0.436837 18.1361 0.650288 18.1154 0.879795L16.6154 17.7859V11.077H14.7692V8.30779C14.7685 8.14107 14.7228 7.97764 14.6368 7.83479C14.5508 7.69194 14.4279 7.57499 14.2809 7.49629C14.1339 7.4176 13.9684 7.3801 13.8018 7.38776C13.6353 7.39542 13.4739 7.44795 13.3348 7.53979L8.028 11.077H7.38462V8.30779C7.38391 8.14107 7.33816 7.97764 7.25219 7.83479C7.16622 7.69194 7.04325 7.57499 6.89627 7.49629C6.74928 7.4176 6.58376 7.3801 6.41722 7.38776C6.25067 7.39542 6.08929 7.44795 5.95015 7.53979L0.411692 11.2321C0.285137 11.3163 0.18134 11.4305 0.109519 11.5645C0.0376988 11.6984 7.85546e-05 11.8481 0 12.0001L0 23.077C0 23.3218 0.0972525 23.5566 0.270363 23.7297C0.443473 23.9029 0.678262 24.0001 0.923077 24.0001H23.0954C23.6058 24.0001 23.9714 23.6752 23.9714 23.1656C23.9714 23.0863 22.5868 0.916718 22.5868 0.916718ZM4.61538 12.9232V15.6924H2.76923V12.9232H4.61538ZM9.23077 12.9232V15.6924H7.38462V12.9232H9.23077ZM13.8462 12.9232V15.6924H12V12.9232H13.8462ZM4.61538 17.5386V20.3078H2.76923V17.5386H4.61538ZM9.23077 17.5386V20.3078H7.38462V17.5386H9.23077ZM13.8462 17.5386V20.3078H12V17.5386H13.8462Z" fill="#069550"/>
</g>
<defs>
<clipPath id="clip0">
<rect width="24" height="24" fill="white"/>
</clipPath>
</defs>
</svg>
