<svg width="32" height="33" viewBox="0 0 32 33" fill="none" xmlns="http://www.w3.org/2000/svg">
<g clip-path="url(#clip0_16199_1388)">
<path d="M21.8162 11.2012C21.829 11.2268 21.8801 11.2652 21.9569 11.3163C21.8674 11.2524 21.8162 11.2012 21.8162 11.2012Z" fill="#FEC132"/>
<path d="M20.9973 17.0759C19.0905 16.0521 16.7359 17.4342 16.4671 17.5877L16.4159 17.6389L12.0521 22.8345C12.0265 22.8729 12.0009 22.9113 11.9753 22.9497C10.171 25.6883 11.9498 27.7358 12.436 28.0941L15.4178 30.5L23.032 21.4141C22.9552 21.5036 22.9168 21.5548 22.9168 21.5548C22.9168 21.5548 23.787 18.5731 20.9973 17.0759Z" fill="#FEC132"/>
<path d="M25.9881 17.1909C26.1289 16.551 26.0777 15.9496 25.8857 15.4121C26.0393 15.9368 26.1033 16.551 25.9881 17.1909Z" fill="#FEC132"/>
<path d="M10.913 14.503C12.935 15.5907 15.4688 13.9783 15.4688 13.9783L10.1324 20.3385L15.5456 13.8887L15.6351 13.8503L22.4944 5.67301L19.5639 3.29276C18.6297 2.49934 16.5309 1.94907 14.7138 3.40793L9.08305 10.0752C9.08305 10.0752 8.12327 13.0057 10.913 14.503Z" fill="#1BA7E0"/>
<path d="M10.1709 20.3646L10.2092 20.3262L10.1453 20.3518L10.1709 20.3646Z" fill="#1BA7E0"/>
<path d="M15.4688 13.9783C15.4688 13.9783 12.935 15.6035 10.913 14.503C8.12326 13.0057 9.08304 10.0752 9.08304 10.0752L6.81796 12.7242C5.26952 14.5542 6.06293 16.9344 6.88195 17.6639C7.68816 18.3677 10.1196 20.3768 10.1196 20.3768L10.1452 20.3512L15.4688 13.9783Z" fill="#1593B7"/>
<path d="M25.988 17.191C26.1031 16.5511 26.0392 15.9369 25.8856 15.4122C25.732 14.8747 25.4761 14.414 25.2329 14.1197C24.6955 13.467 22.5328 11.7778 21.9569 11.3299C21.8801 11.2787 21.8289 11.2403 21.8161 11.2275L16.4797 17.6005C16.7485 17.4341 19.1031 16.0648 21.0099 17.0886C23.7997 18.5859 22.9423 21.5804 22.9423 21.5804C22.9423 21.5804 22.9807 21.5292 23.0574 21.4396C23.4669 20.9661 24.7978 19.4177 25.2841 18.7906C25.668 18.2531 25.8856 17.7157 25.988 17.191Z" fill="#FBA919"/>
<path d="M21.8035 11.2139C21.8163 11.2139 21.8163 11.2139 21.8035 11.2139H21.7907L15.6353 13.8501L15.5457 13.8885L10.1325 20.3382L10.1069 20.3638L10.1453 20.351L10.1965 20.3254L16.4159 17.638L16.4671 17.5868L21.8035 11.2139Z" fill="#039058"/>
</g>
<defs>
<clipPath id="clip0_16199_1388">
<rect width="20.1298" height="28" fill="white" transform="translate(5.93506 2.5)"/>
</clipPath>
</defs>
</svg>
