<svg width="53" height="53" viewBox="0 0 53 53" fill="none" xmlns="http://www.w3.org/2000/svg">
<rect x="0.829956" y="0.5" width="52" height="52" rx="14" fill="#E6F6EC"/>
<path d="M39.4225 38.4297L14.2373 38.4297" stroke="#16A75C" stroke-width="2.6" stroke-linecap="round"/>
<path d="M38.1633 38.43V19.3422C38.1633 17.0927 38.1633 15.968 37.4256 15.2691C36.688 14.5703 35.5007 14.5703 33.1263 14.5703H30.6077C28.2333 14.5703 27.046 14.5703 26.3084 15.2691C25.7146 15.8317 25.5988 16.6702 25.5762 18.1493" stroke="#16A75C" stroke-width="2.6"/>
<path d="M30.6077 38.4301V22.9213C30.6077 20.6718 30.6077 19.5471 29.87 18.8482C29.1324 18.1494 27.9451 18.1494 25.5707 18.1494H20.5336C18.1591 18.1494 16.9719 18.1494 16.2342 18.8482C15.4966 19.5471 15.4966 20.6718 15.4966 22.9213V38.4301" stroke="#16A75C" stroke-width="2.6"/>
<path d="M23.0521 38.4295V34.8506" stroke="#16A75C" stroke-width="2.6" stroke-linecap="round"/>
<path d="M19.2744 21.7285H26.83" stroke="#FF9500" stroke-width="2.4" stroke-linecap="round"/>
<path d="M19.2744 25.3066H26.83" stroke="#FF9500" stroke-width="2.4" stroke-linecap="round"/>
<path d="M19.2744 28.8857H26.83" stroke="#FF9500" stroke-width="2.4" stroke-linecap="round"/>
</svg>
