<svg width="52" height="53" viewBox="0 0 52 53" fill="none" xmlns="http://www.w3.org/2000/svg">
<rect y="0.5" width="52" height="52" rx="14" fill="#E6F6EC"/>
<path d="M28.9438 16.4931L27.8289 17.4966L27.8289 17.4966L28.9438 16.4931ZM33 21H34.5V20.4244L34.1149 19.9966L33 21ZM22.6 39C23.4284 39 24.1 38.3284 24.1 37.5C24.1 36.6716 23.4284 36 22.6 36V39ZM31.5 26.9167C31.5 27.7451 32.1716 28.4167 33 28.4167C33.8284 28.4167 34.5 27.7451 34.5 26.9167H31.5ZM16.5 34.5V18.5H13.5V34.5H16.5ZM18 17H26.7139V14H18V17ZM27.8289 17.4966L31.8851 22.0034L34.1149 19.9966L30.0587 15.4897L27.8289 17.4966ZM22.6 36H18V39H22.6V36ZM31.5 21V26.9167H34.5V21H31.5ZM26.7139 17C27.1391 17 27.5444 17.1805 27.8289 17.4966L30.0587 15.4897C29.2053 14.5414 27.9896 14 26.7139 14V17ZM13.5 34.5C13.5 36.9853 15.5147 39 18 39V36C17.1716 36 16.5 35.3284 16.5 34.5H13.5ZM16.5 18.5C16.5 17.6716 17.1716 17 18 17V14C15.5147 14 13.5 16.0147 13.5 18.5H16.5Z" fill="#16A75C"/>
<path fill-rule="evenodd" clip-rule="evenodd" d="M24.5 21.5V16.5H27.5V21H33V24H27C25.6193 24 24.5 22.8807 24.5 21.5Z" fill="#16A75C"/>
<path fill-rule="evenodd" clip-rule="evenodd" d="M29 31C29 32.3807 27.8807 33.5 26.5 33.5C25.1193 33.5 24 32.3807 24 31C24 29.6193 25.1193 28.5 26.5 28.5C27.8807 28.5 29 29.6193 29 31ZM29.1427 34.6427C28.4006 35.1819 27.4875 35.5 26.5 35.5C24.0147 35.5 22 33.4853 22 31C22 28.5147 24.0147 26.5 26.5 26.5C28.9853 26.5 31 28.5147 31 31C31 31.7723 30.8054 32.4992 30.4627 33.1343L32.7071 35.3787C33.0976 35.7692 33.0976 36.4024 32.7071 36.7929C32.3166 37.1834 31.6834 37.1834 31.2929 36.7929L29.1427 34.6427Z" fill="#FF9500"/>
</svg>
