<svg width="52" height="53" viewBox="0 0 52 53" fill="none" xmlns="http://www.w3.org/2000/svg">
<rect y="0.5" width="52" height="52" rx="14" fill="#E6F6EC"/>
<path fill-rule="evenodd" clip-rule="evenodd" d="M28.5 18.5C28.5 17.6716 29.1716 17 30 17C31.4784 17 32.7607 17.5346 33.6684 18.4946C34.5637 19.4415 35 20.7013 35 22C35 23.2987 34.5637 24.5585 33.6684 25.5054C32.7607 26.4654 31.4784 27 30 27C29.1716 27 28.5 26.3284 28.5 25.5C28.5 24.6716 29.1716 24 30 24C30.7307 24 31.1984 23.7511 31.4885 23.4443C31.7909 23.1245 32 22.6343 32 22C32 21.3657 31.7909 20.8755 31.4885 20.5557C31.1984 20.2489 30.7307 20 30 20C29.1716 20 28.5 19.3284 28.5 18.5Z" fill="#FF9500"/>
<path d="M33.5 31.0108C34.2421 31.4056 34.9273 31.9066 35.5367 32.4961C34.9276 31.909 34.2424 31.4097 33.5 31.0153V31.0108ZM37.2463 36.2675C37.4985 35.8438 37.5253 35.3254 37.3232 34.8804C37.5169 35.247 37.6885 35.629 37.8359 36.0244C37.9541 36.3416 38.0567 36.6673 38.1426 37.0004H35.9573C36.4862 37.0004 36.9759 36.722 37.2463 36.2675Z" fill="#16A75C" stroke="#FF9500" stroke-width="3" stroke-linejoin="round"/>
<mask id="path-4-inside-1_10444_65222" fill="white">
<path fill-rule="evenodd" clip-rule="evenodd" d="M12.0117 38.5H32.9883C32.7274 32.9332 28.1314 28.5 22.5 28.5C16.8686 28.5 12.2727 32.9332 12.0117 38.5Z"/>
</mask>
<path d="M12.0117 38.5L9.01501 38.3595C8.97661 39.1786 9.27519 39.9778 9.8413 40.5711C10.4074 41.1643 11.1917 41.5 12.0117 41.5V38.5ZM32.9883 38.5V41.5C33.8084 41.5 34.5926 41.1643 35.1587 40.5711C35.7249 39.9778 36.0234 39.1786 35.985 38.3595L32.9883 38.5ZM12.0117 41.5H32.9883V35.5H12.0117V41.5ZM22.5 31.5C26.5216 31.5 29.8053 34.6666 29.9916 38.6405L35.985 38.3595C35.6494 31.1998 29.7412 25.5 22.5 25.5V31.5ZM15.0084 38.6405C15.1947 34.6666 18.4784 31.5 22.5 31.5V25.5C15.2588 25.5 9.35066 31.1998 9.01501 38.3595L15.0084 38.6405Z" fill="#16A75C" mask="url(#path-4-inside-1_10444_65222)"/>
<circle cx="22" cy="21.5" r="3.5" stroke="#16A75C" stroke-width="3"/>
</svg>
