<svg width="52" height="53" viewBox="0 0 52 53" fill="none" xmlns="http://www.w3.org/2000/svg">
<rect y="0.5" width="52" height="52" rx="14" fill="#E6F6EC"/>
<g clip-path="url(#clip0_10444_65234)">
<path fill-rule="evenodd" clip-rule="evenodd" d="M21 29V31.5C21 32.0523 20.5523 32.5 20 32.5H18.8293C18.4175 31.3348 17.3062 30.5 16 30.5C14.3431 30.5 13 31.8431 13 33.5C13 35.1569 14.3431 36.5 16 36.5C17.3062 36.5 18.4175 35.6652 18.8293 34.5H20C21.6569 34.5 23 33.1569 23 31.5V29H21ZM17 33.5C17 34.0523 16.5523 34.5 16 34.5C15.4477 34.5 15 34.0523 15 33.5C15 32.9477 15.4477 32.5 16 32.5C16.5523 32.5 17 32.9477 17 33.5Z" fill="#FF9500"/>
<path fill-rule="evenodd" clip-rule="evenodd" d="M32 28.5V30.5C32 31.0523 32.4477 31.5 33 31.5H34.1707C34.5825 30.3348 35.6938 29.5 37 29.5C38.6569 29.5 40 30.8431 40 32.5C40 34.1569 38.6569 35.5 37 35.5C35.6938 35.5 34.5825 34.6652 34.1707 33.5H33C31.3431 33.5 30 32.1569 30 30.5V28.5H32ZM36 32.5C36 33.0523 36.4477 33.5 37 33.5C37.5523 33.5 38 33.0523 38 32.5C38 31.9477 37.5523 31.5 37 31.5C36.4477 31.5 36 31.9477 36 32.5Z" fill="#FF9500"/>
<path fill-rule="evenodd" clip-rule="evenodd" d="M27 34.6707C28.1652 35.0825 29 36.1938 29 37.5C29 39.1569 27.6569 40.5 26 40.5C24.3431 40.5 23 39.1569 23 37.5C23 36.1938 23.8348 35.0825 25 34.6707L25 28.5H27L27 34.6707ZM27 37.5C27 38.0523 26.5523 38.5 26 38.5C25.4477 38.5 25 38.0523 25 37.5C25 36.9477 25.4477 36.5 26 36.5C26.5523 36.5 27 36.9477 27 37.5Z" fill="#FF9500"/>
<path fill-rule="evenodd" clip-rule="evenodd" d="M19.6321 18.8087C19.471 18.7935 19.3079 18.7857 19.1429 18.7857C16.3025 18.7857 14 21.0882 14 23.9286C14 26.4769 15.8534 28.5923 18.2857 29.0003L19 29.0714H33L33.7143 29.0003C36.1466 28.5923 38 26.4769 38 23.9286C38 21.0882 35.6975 18.7857 32.8571 18.7857C32.6921 18.7857 32.529 18.7935 32.3679 18.8087C31.3565 16.2835 28.8865 14.5 26 14.5C23.1135 14.5 20.6435 16.2835 19.6321 18.8087ZM33.0405 26.0714L33.2179 26.0417C34.2291 25.872 35 24.9874 35 23.9286C35 22.7451 34.0406 21.7857 32.8571 21.7857C32.7864 21.7857 32.7173 21.789 32.6498 21.7954L31.1613 21.9359C30.7199 21.9775 30.3039 21.7236 30.139 21.3121L29.5831 19.9242C29.0119 18.4984 27.6189 17.5 26 17.5C24.3811 17.5 22.9881 18.4984 22.4169 19.9242L21.861 21.3121C21.6962 21.7236 21.2801 21.9775 20.8387 21.9359L19.3502 21.7954C19.2827 21.789 19.2136 21.7857 19.1429 21.7857C17.9594 21.7857 17 22.7451 17 23.9286C17 24.9874 17.7709 25.872 18.7821 26.0417L18.9595 26.0714H33.0405Z" fill="#16A75C"/>
</g>
<defs>
<clipPath id="clip0_10444_65234">
<rect width="28" height="28" fill="white" transform="translate(12 12.5)"/>
</clipPath>
</defs>
</svg>
