<svg width="53" height="53" viewBox="0 0 53 53" fill="none" xmlns="http://www.w3.org/2000/svg">
<rect x="0.5" y="0.5" width="52" height="52" rx="14" fill="#E6F6EC"/>
<path d="M40.5012 18.7552C40.4408 18.7629 40.4549 18.8197 40.4373 18.8548C40.2619 19.2057 39.9019 19.3966 39.5566 19.3187C39.3755 19.2806 39.2133 19.1806 39.0981 19.0359C38.9828 18.8911 38.9216 18.7107 38.925 18.5257C38.9061 17.506 38.5622 16.6134 37.8647 15.8681C37.1138 15.0646 36.1805 14.6471 35.0766 14.6099C34.6036 14.5938 34.2928 14.3734 34.2029 13.9783C34.1194 13.6064 34.3159 13.2766 34.7419 13.0752C34.7538 13.0688 34.7594 13.0492 34.7678 13.0352H35.5573C36.1138 13.0658 36.6603 13.1953 37.1714 13.4176C38.6436 14.0726 39.6637 15.1507 40.2317 16.652C40.3773 17.0592 40.4682 17.484 40.5019 17.9152L40.5012 18.7552Z" fill="#FF9500"/>
<path d="M13.0312 35.0828C13.0397 35.0828 13.053 35.0828 13.0558 35.0744C13.2867 34.6246 13.6018 34.4344 13.9779 34.52C14.3842 34.6126 14.5997 34.9186 14.6095 35.421C14.6572 37.4835 16.3786 39.1832 18.4691 39.2295C19.1007 39.2435 19.4937 39.746 19.293 40.2884C19.1709 40.6175 18.8804 40.8056 18.4923 40.8056C16.0916 40.8056 13.8944 39.1298 13.2439 36.7986C13.1632 36.5095 13.1035 36.2154 13.0334 35.9228L13.0312 35.0828Z" fill="#FF9500"/>
<path d="M26.1841 15.5C20.1187 15.5 15.1841 20.4346 15.1841 26.5C15.1841 32.5654 20.1187 37.5 26.1841 37.5C32.2495 37.5 37.1841 32.5654 37.1841 26.5C37.1841 20.4346 32.2495 15.5 26.1841 15.5ZM34.9082 25.4H31.8678C31.7321 22.9924 31.0585 20.6458 29.8966 18.5327C31.2432 19.162 32.4088 20.1215 33.285 21.3222C34.1613 22.5229 34.7196 23.9256 34.9082 25.4ZM26.7671 17.7297C27.9056 19.2301 29.4368 21.8877 29.6568 25.4H22.9171C23.07 22.5444 24.0105 19.8692 25.6132 17.7286C25.8024 17.7176 25.9916 17.7 26.1841 17.7C26.381 17.7 26.5735 17.7176 26.7671 17.7297ZM22.5409 18.4997C21.4585 20.5798 20.8337 22.9382 20.7171 25.4H17.46C17.65 23.9126 18.2164 22.4983 19.1055 21.2909C19.9945 20.0834 21.177 19.1227 22.5409 18.4997ZM17.46 27.6H20.7314C20.881 30.2169 21.4629 32.5258 22.443 34.453C21.1034 33.8215 19.9446 32.8626 19.0736 31.6648C18.2027 30.467 17.6477 29.069 17.46 27.6ZM25.5791 35.2703C24.038 33.4025 23.1283 30.7856 22.9292 27.6H29.6535C29.4247 30.6503 28.4248 33.3156 26.7902 35.2692C26.59 35.2824 26.3898 35.3 26.1841 35.3C25.9795 35.3 25.7804 35.2824 25.5791 35.2703ZM29.9912 34.4211C31.0417 32.4477 31.683 30.13 31.8513 27.6H34.9071C34.7214 29.0567 34.1744 30.4439 33.3159 31.6352C32.4573 32.8265 31.3144 33.7842 29.9912 34.4211Z" fill="#16A75C"/>
<path d="M18.4588 37.6529C17.2342 37.6157 16.2048 36.5708 16.19 35.3497C16.1844 34.8845 16.5023 34.5266 16.9402 34.5076C17.3781 34.4887 17.7297 34.8136 17.7662 35.2796C17.804 35.7659 18.0826 36.0515 18.5598 36.0845C19.037 36.1174 19.3732 36.4767 19.343 36.9224C19.3128 37.368 18.9479 37.6676 18.4588 37.6529Z" fill="#FF9500"/>
<path d="M37.3427 18.4851C37.349 18.9503 37.0318 19.3089 36.5946 19.3307C36.1574 19.3525 35.803 19.0247 35.7665 18.563C35.7272 18.0626 35.4592 17.7981 34.949 17.756C34.5006 17.7195 34.177 17.3749 34.1883 16.9468C34.1995 16.5188 34.5574 16.1805 35.0192 16.1826C36.2634 16.1889 37.3258 17.2423 37.3427 18.4851Z" fill="#FF9500"/>
</svg>
