<svg width="56" height="56" viewBox="0 0 56 56" fill="none" xmlns="http://www.w3.org/2000/svg">
<rect x="45.4619" y="5.65161" width="3.86909" height="32.0809" fill="#24B1E7"/>
<rect x="38.4873" y="9.46216" width="3.86909" height="28.3218" fill="#24B1E7"/>
<rect x="31.4619" y="19.2976" width="3.86909" height="18.4864" fill="#24B1E7"/>
<path d="M32.5818 14.1997C31.36 15.5901 29.2728 15.7446 27.8982 14.5087C26.5237 13.2728 26.3709 11.1616 27.5928 9.77123C28.8146 8.38089 30.9018 8.2264 32.2764 9.46227C33.6509 10.6981 33.8037 12.8094 32.5818 14.1997Z" fill="#E19D20"/>
<ellipse cx="29.7398" cy="11.6702" rx="3.07449" ry="3.06997" transform="rotate(-48.7014 29.7398 11.6702)" fill="#E19D20"/>
<ellipse cx="30.348" cy="11.693" rx="2.61332" ry="2.60947" transform="rotate(-48.7014 30.348 11.693)" fill="#FDBE21"/>
<path fill-rule="evenodd" clip-rule="evenodd" d="M27.5418 14.1996C28.9163 15.4355 31.0036 15.281 32.2254 13.8907C33.4472 12.5003 33.2945 10.3376 31.9199 9.15318C30.5454 7.91732 28.4581 8.07181 27.2363 9.46215C26.0145 10.8525 26.1672 12.9638 27.5418 14.1996ZM27.8981 13.7876C26.7272 12.7577 26.6254 10.9555 27.6436 9.82258C28.6618 8.6897 30.3927 8.53522 31.5636 9.56511C32.7345 10.595 32.8363 12.3973 31.8181 13.5302C30.7999 14.7145 29.0181 14.8175 27.8981 13.7876Z" fill="#FDBE21"/>
<path d="M34.16 45.3022C32.48 29.2875 26.1673 17.3408 18.6327 17.3408C11.0473 17.3408 4.73457 29.2875 3.05457 45.3022H34.16Z" fill="#099449"/>
<path d="M16.5455 17.6499L18.6328 20.894L20.6692 17.6499H16.5455Z" fill="white"/>
<ellipse cx="18.6328" cy="12.7064" rx="4.27636" ry="5.61287" fill="#099449"/>
<mask id="mask0" style="mask-type:alpha" maskUnits="userSpaceOnUse" x="3" y="17" width="32" height="29">
<path fill-rule="evenodd" clip-rule="evenodd" d="M34.16 45.3022C32.48 29.2875 26.1673 17.3408 18.6327 17.3408C11.0473 17.3408 4.73457 29.2875 3.05457 45.3022H34.16Z" fill="white"/>
</mask>
<g mask="url(#mask0)">
<path d="M18.6327 28.515L14.3054 23.3655L16.0364 21.6662L12.6764 18.3706L0.0509033 30.8837L0.763631 47.5678L18.4291 46.6924L18.6327 28.515Z" fill="#097035"/>
</g>
<mask id="mask1" style="mask-type:alpha" maskUnits="userSpaceOnUse" x="3" y="17" width="32" height="29">
<path fill-rule="evenodd" clip-rule="evenodd" d="M34.16 45.3022C32.48 29.2875 26.1673 17.3408 18.6327 17.3408C11.0473 17.3408 4.73457 29.2875 3.05457 45.3022H34.16Z" fill="white"/>
</mask>
<g mask="url(#mask1)">
<path d="M24.5381 18.3708L21.1781 21.6665L22.9091 23.3658L18.6327 28.5152V20.894L20.6691 17.6499L24.5381 18.3708Z" fill="#097035"/>
</g>
<ellipse cx="18.48" cy="33.8706" rx="1.17091" ry="1.18437" fill="#FDBE21"/>
<ellipse cx="18.48" cy="40.4617" rx="1.17091" ry="1.18437" fill="#FDBE21"/>
<path d="M51.011 50.4001H25.6583C24.691 50.4001 23.9274 49.6277 23.9274 48.6493V32.6346C23.9274 31.6562 24.691 30.8838 25.6583 30.8838H51.011C51.9783 30.8838 52.7419 31.6562 52.7419 32.6346V48.6493C52.691 49.6277 51.9274 50.4001 51.011 50.4001Z" fill="#097035"/>
<path d="M45.0547 32.6862H43.0692V29.1331C43.0692 28.2062 42.3056 27.4338 41.3892 27.4338H35.9419C35.0256 27.4338 34.2619 28.2062 34.2619 29.1331V32.1713H32.2765V29.1331C32.2765 27.0733 33.9565 25.374 35.9929 25.374H41.3892C43.4256 25.374 45.1056 27.0733 45.1056 29.1331V32.6862H45.0547Z" fill="#0A9448"/>
<mask id="mask2" style="mask-type:alpha" maskUnits="userSpaceOnUse" x="23" y="30" width="30" height="21">
<path fill-rule="evenodd" clip-rule="evenodd" d="M51.011 50.4001H25.6583C24.691 50.4001 23.9274 49.6277 23.9274 48.6493V32.6346C23.9274 31.6562 24.691 30.8838 25.6583 30.8838H51.011C51.9783 30.8838 52.7419 31.6562 52.7419 32.6346V48.6493C52.691 49.6277 51.9274 50.4001 51.011 50.4001Z" fill="white"/>
</mask>
<g mask="url(#mask2)">
<path d="M53.9129 47.4135H27.7965C27.2874 47.4135 26.8801 47.0016 26.8801 46.4866V29.648C26.8801 28.6696 27.6438 27.8972 28.611 27.8972H53.9638C54.931 27.8972 55.6947 28.6696 55.6947 29.648V45.6627C55.6438 46.6411 54.8801 47.4135 53.9129 47.4135Z" fill="#099449"/>
</g>
<mask id="mask3" style="mask-type:alpha" maskUnits="userSpaceOnUse" x="23" y="30" width="30" height="21">
<path fill-rule="evenodd" clip-rule="evenodd" d="M51.011 50.4001H25.6583C24.691 50.4001 23.9274 49.6277 23.9274 48.6493V32.6346C23.9274 31.6562 24.691 30.8838 25.6583 30.8838H51.011C51.9783 30.8838 52.7419 31.6562 52.7419 32.6346V48.6493C52.691 49.6277 51.9274 50.4001 51.011 50.4001Z" fill="white"/>
</mask>
<g mask="url(#mask3)">
<rect x="26.8801" y="40.6162" width="27.3891" height="5.56138" fill="#24B1E7"/>
</g>
<mask id="mask4" style="mask-type:alpha" maskUnits="userSpaceOnUse" x="23" y="30" width="30" height="21">
<path fill-rule="evenodd" clip-rule="evenodd" d="M51.011 50.4001H25.6583C24.691 50.4001 23.9274 49.6277 23.9274 48.6493V32.6346C23.9274 31.6562 24.691 30.8838 25.6583 30.8838H51.011C51.9783 30.8838 52.7419 31.6562 52.7419 32.6346V48.6493C52.691 49.6277 51.9274 50.4001 51.011 50.4001Z" fill="white"/>
</mask>
<g mask="url(#mask4)">
<rect x="22.2983" y="40.6162" width="4.58182" height="5.56138" fill="#0079A4"/>
</g>
</svg>
