<svg width="56" height="56" viewBox="0 0 56 56" fill="none" xmlns="http://www.w3.org/2000/svg">
<path d="M53.2 38.4036C51.7384 24.7147 46.1944 14.5601 39.6424 14.5601C33.04 14.5601 27.496 24.7147 26.0344 38.4036H53.2Z" fill="#24B1E7"/>
<ellipse cx="39.6424" cy="10.6275" rx="3.7296" ry="4.77867" fill="#24B1E7"/>
<path d="M29.9657 38.4036C28.504 24.7147 22.9601 14.5601 16.3576 14.5601C9.80565 14.5601 4.26165 24.7147 2.80005 38.4036H29.9657Z" fill="#FDBE21"/>
<ellipse cx="16.3577" cy="10.6275" rx="3.7296" ry="4.77867" fill="#FDBE21"/>
<mask id="mask0" style="mask-type:alpha" maskUnits="userSpaceOnUse" x="26" y="14" width="28" height="25">
<path fill-rule="evenodd" clip-rule="evenodd" d="M53.2 38.4036C51.7384 24.7147 46.1944 14.5601 39.6424 14.5601C33.04 14.5601 27.496 24.7147 26.0344 38.4036H53.2Z" fill="white"/>
</mask>
<g mask="url(#mask0)">
<rect x="23.7161" y="28.0996" width="30.2904" height="10.304" fill="#0079A4"/>
</g>
<mask id="mask1" style="mask-type:alpha" maskUnits="userSpaceOnUse" x="2" y="14" width="28" height="25">
<path fill-rule="evenodd" clip-rule="evenodd" d="M29.9657 38.4036C28.504 24.7147 22.9601 14.5601 16.3576 14.5601C9.80565 14.5601 4.26165 24.7147 2.80005 38.4036H29.9657Z" fill="white"/>
</mask>
<g mask="url(#mask1)">
<rect x="-0.223877" y="28.0996" width="28.224" height="10.304" fill="#E19D20"/>
</g>
<path d="M43.372 50.2505C41.7088 34.7199 35.4592 23.2212 28 23.2212C20.5408 23.2212 14.2408 34.7696 12.5776 50.2505H43.372Z" fill="#099449"/>
<ellipse cx="28" cy="18.7412" rx="4.2336" ry="5.42578" fill="#099449"/>
<mask id="mask2" style="mask-type:alpha" maskUnits="userSpaceOnUse" x="12" y="23" width="32" height="28">
<path fill-rule="evenodd" clip-rule="evenodd" d="M43.372 50.2508C41.7088 34.7201 35.4592 23.2214 28 23.2214C20.5408 23.2214 14.2408 34.7699 12.5776 50.2508H43.372Z" fill="white"/>
</mask>
<g mask="url(#mask2)">
<rect x="10.0072" y="38.4036" width="37.8" height="13.4898" fill="#097035"/>
</g>
</svg>
