<svg width="56" height="56" viewBox="0 0 56 56" fill="none" xmlns="http://www.w3.org/2000/svg">
<ellipse cx="36.9999" cy="9.67999" rx="4.47429" ry="6.02667" fill="#24B1E7"/>
<path d="M51.0914 32.7733H33.2456C31.1371 29.7867 28.7714 27.6 27.2285 26.2667H48.8799C45.8456 19.0667 41.6285 14.5867 36.9999 14.5867C29.1314 14.5867 22.5485 27.3333 20.7999 44.4533H53.1999C52.7885 40.2933 52.0685 36.3467 51.0914 32.7733Z" fill="#24B1E7"/>
<path d="M23.2685 32.7734V31.4934C22.1371 35.3867 21.2628 39.7601 20.7999 44.4534H38.1828C37.4114 39.7601 35.4571 35.8134 33.2456 32.7201H23.2685V32.7734Z" fill="#097035"/>
<path d="M35.3542 51.9734C33.6057 34.8534 27.0228 22.1067 19.1542 22.1067C11.2857 22.1067 4.7028 34.8534 2.95422 51.9734H35.3542Z" fill="#099449"/>
<ellipse cx="19.1542" cy="17.1468" rx="4.47429" ry="6.02667" fill="#099449"/>
<mask id="mask0" style="mask-type:alpha" maskUnits="userSpaceOnUse" x="2" y="22" width="34" height="30">
<path fill-rule="evenodd" clip-rule="evenodd" d="M35.3542 51.9734C33.6057 34.8534 27.0228 22.1067 19.1542 22.1067C11.2857 22.1067 4.7028 34.8534 2.95422 51.9734H35.3542Z" fill="white"/>
</mask>
<g mask="url(#mask0)">
<path d="M12.1857 23.361L13.1259 22.9281L17.7798 33.7986L16.8397 34.2315L12.1857 23.361Z" fill="#FDBE21"/>
</g>
<mask id="mask1" style="mask-type:alpha" maskUnits="userSpaceOnUse" x="2" y="22" width="34" height="30">
<path fill-rule="evenodd" clip-rule="evenodd" d="M35.3542 51.9734C33.6057 34.8534 27.0228 22.1067 19.1542 22.1067C11.2857 22.1067 4.7028 34.8534 2.95422 51.9734H35.3542Z" fill="white"/>
</mask>
<g mask="url(#mask1)">
<path d="M19.9886 33.808L24.6414 22.9374L25.5815 23.3702L20.9287 34.2407L19.9886 33.808Z" fill="#FDBE21"/>
</g>
<path d="M41.1657 6.64003C41.1657 4.77336 39.7257 3.28003 37.9257 3.28003H35.9714C34.1714 3.28003 32.7314 4.77336 32.7314 6.64003H31.4457C30.9828 6.64003 30.5714 7.01336 30.5714 7.5467C30.5714 8.0267 30.9314 8.45336 31.4457 8.45336H42.4C42.8628 8.45336 43.2743 8.08003 43.2743 7.5467C43.2743 7.0667 42.9143 6.64003 42.4 6.64003H41.1657Z" fill="#0079A4"/>
<path d="M22.0857 36.0268V36.7201H12.8285C12.16 36.7201 11.5942 37.3068 11.5942 38.0001V45.8934C11.5942 46.6934 12.2628 47.3868 13.0342 47.3868H25.12C25.8914 47.3868 26.56 46.6934 26.56 45.8934V37.4668V36.7201V36.0268C26.56 35.4934 26.1485 35.0134 25.5828 35.0134H22.96C22.4971 35.0134 22.0857 35.4934 22.0857 36.0268Z" fill="#24B1E7"/>
<path d="M22.7028 32.6134V33.4667H11.6971C10.9257 33.4667 10.2571 34.1601 10.2571 34.9601V44.3467C10.2571 45.3067 11.0285 46.1067 11.9542 46.1067H26.3542C27.2799 46.1067 28.0514 45.3067 28.0514 44.3467V34.3201V33.4134V32.5601C28.0514 31.9201 27.5371 31.3867 26.9199 31.3867H23.7828C23.1657 31.4401 22.7028 31.9734 22.7028 32.6134Z" fill="#FDBE21"/>
<mask id="mask2" style="mask-type:alpha" maskUnits="userSpaceOnUse" x="10" y="31" width="19" height="16">
<path fill-rule="evenodd" clip-rule="evenodd" d="M22.7028 32.6134V33.4667H11.6971C10.9257 33.4667 10.2571 34.1601 10.2571 34.9601V44.3467C10.2571 45.3067 11.0285 46.1067 11.9542 46.1067H26.3542C27.2799 46.1067 28.0514 45.3067 28.0514 44.3467V34.3201V33.4134V32.5601C28.0514 31.9201 27.5371 31.3867 26.9199 31.3867H23.7828C23.1657 31.4401 22.7028 31.9734 22.7028 32.6134Z" fill="white"/>
</mask>
<g mask="url(#mask2)">
<rect x="9.12573" y="40.1333" width="21.9086" height="6.66667" fill="#097035"/>
</g>
<ellipse cx="19.1542" cy="39.8134" rx="2.93143" ry="3.04" fill="#FDBE21"/>
<ellipse cx="25.3771" cy="36.5068" rx="0.874286" ry="0.906666" fill="white"/>
<path d="M20.2343 36.0801L15.8114 41.3601L17.6628 42.7467L21.7257 37.8401L20.2343 36.0801Z" fill="white"/>
<path d="M21.8799 38.5867L18.8971 42.7467H19.6685L22.1885 39.2267L21.8799 38.5867Z" fill="white"/>
<path fill-rule="evenodd" clip-rule="evenodd" d="M15.0914 39.8134C15.0914 37.5201 16.8914 35.6001 19.1543 35.6001C21.4171 35.6001 23.2686 37.4668 23.2171 39.8134C23.2171 42.1068 21.3657 44.0268 19.1543 44.0268C16.9429 44.0268 15.0914 42.1601 15.0914 39.8134ZM16.2228 39.8668C16.2228 41.5201 17.5086 42.9068 19.1543 42.9068C20.8 42.9068 22.1371 41.5201 22.0857 39.8668C22.0857 38.2134 20.7486 36.8268 19.1543 36.8268C17.56 36.8268 16.2228 38.1601 16.2228 39.8668Z" fill="#097035"/>
</svg>
