<svg width="80" height="80" viewBox="0 0 80 80" fill="none" xmlns="http://www.w3.org/2000/svg">
<path d="M9.99995 0H52.4823L74.9998 22.4301V75C74.9998 77.7625 72.7599 80 69.9999 80H9.99995C7.23988 80 5 77.7625 5 75V4.99995C5 2.23755 7.24014 0 9.99995 0Z" fill="#F3EEEE"/>
<rect x="2.18481" y="14.8691" width="41" height="22" rx="4" fill="#F44336"/>
<path d="M74.9275 22.4998H57.5C54.7399 22.4998 52.5 20.2599 52.5 17.4998V0.0498047L74.9275 22.4998Z" fill="#D2BDBE"/>
<path d="M10.7807 25.8996C11.2106 25.8996 11.5854 25.8539 11.9049 25.7626C12.2245 25.6663 12.4889 25.5319 12.698 25.3595C12.913 25.182 13.0728 24.969 13.1774 24.7205C13.2819 24.4669 13.3342 24.1854 13.3342 23.8761C13.3342 23.5819 13.2819 23.3157 13.1774 23.0773C13.0728 22.8389 12.9159 22.6361 12.7067 22.4687C12.4976 22.3014 12.2332 22.1746 11.9137 22.0884C11.5941 21.9971 11.2165 21.9514 10.7807 21.9514H9.02895V25.8996H10.7807ZM10.7807 20.3691C11.6232 20.3691 12.3523 20.4554 12.9682 20.6278C13.5841 20.8002 14.0925 21.0411 14.4933 21.3505C14.8942 21.6598 15.1906 22.03 15.3823 22.4611C15.5798 22.8922 15.6786 23.3638 15.6786 23.8761C15.6786 24.4086 15.5769 24.898 15.3736 25.3442C15.1702 25.7855 14.8652 26.1658 14.4585 26.4853C14.0518 26.8048 13.5405 27.0533 12.9246 27.2308C12.3146 27.4083 11.5999 27.4971 10.7807 27.4971H9.02895V31.3691H6.68457V20.3691H10.7807Z" fill="white"/>
<path d="M28.6666 25.8691C28.6666 26.6755 28.5127 27.4159 28.2047 28.0904C27.8968 28.7649 27.4639 29.3456 26.9062 29.8325C26.3484 30.3193 25.6773 30.6972 24.893 30.966C24.1086 31.2347 23.2371 31.3691 22.2784 31.3691H17.4764V20.3691H22.2784C23.2371 20.3691 24.1086 20.5061 24.893 20.7799C25.6773 21.0487 26.3484 21.4265 26.9062 21.9134C27.4639 22.3952 27.8968 22.9733 28.2047 23.6478C28.5127 24.3223 28.6666 25.0628 28.6666 25.8691ZM26.2613 25.8691C26.2613 25.2656 26.1683 24.7255 25.9824 24.2488C25.8023 23.767 25.5379 23.3613 25.1893 23.0317C24.8465 22.6969 24.4282 22.4408 23.9343 22.2633C23.4463 22.0858 22.8943 21.9971 22.2784 21.9971H19.8295V29.7412H22.2784C22.8943 29.7412 23.4463 29.6525 23.9343 29.4749C24.4282 29.2974 24.8465 29.0439 25.1893 28.7142C25.5379 28.3795 25.8023 27.9738 25.9824 27.4971C26.1683 27.0153 26.2613 26.4726 26.2613 25.8691Z" fill="white"/>
<path d="M33.0894 21.9971V25.253H37.8131V26.8885H33.0894V31.3691H30.7364V20.3691H38.6846V21.9971H33.0894Z" fill="white"/>
<rect x="14.5071" y="45.4116" width="51.4643" height="5.33333" rx="2.66667" fill="white"/>
<rect x="14.5066" y="55.8022" width="51.4643" height="5.33333" rx="2.66667" fill="white"/>
<rect x="14.5066" y="66.1914" width="34.3128" height="5.33333" rx="2.66667" fill="white"/>
</svg>
