<svg width="1212" height="133" viewBox="0 0 1212 133" fill="none" xmlns="http://www.w3.org/2000/svg">
<g opacity="0.03">
<path d="M98.6513 1.66946H45.8024C45.8024 11.3152 45.8024 20.961 45.8024 31.1632H64.7167V87.7392C64.7167 98.1269 58.2265 103.321 48.5839 103.321C38.9413 103.321 31.3385 97.9414 31.3385 87.7392V71.4156C20.9541 71.4156 10.1989 71.4156 0 71.4156V88.2957C0 116.676 21.8813 133 48.5839 133C75.2865 133 98.6513 116.676 98.6513 88.2957V1.66946Z" fill="white"/>
<path d="M213.27 131.516H245.721V126.693L187.124 0H172.845L114.434 126.693V131.516H146.885L154.487 115.192H205.667L213.27 131.516ZM194.912 86.8117H165.243L179.892 52.6806L194.912 86.8117Z" fill="white"/>
<path d="M321.502 3.70991L299.806 72.7141H299.25L293.501 50.6402L276.812 1.66946H243.248V6.67783L288.865 132.814H307.223L327.992 70.3026H328.548L349.317 132.814H368.417L413.477 6.67783V1.66946H380.47L363.966 50.6402L358.218 72.7141H357.662L335.595 3.70991C330.403 3.70991 326.694 3.70991 321.502 3.70991Z" fill="white"/>
<path d="M509.712 131.516H542.163V126.693L483.566 0H469.288L410.876 126.693V131.516H443.327L450.93 115.192H502.109L509.712 131.516ZM491.354 86.8117H461.685L476.334 52.6806L491.354 86.8117Z" fill="white"/>
<path d="M706.144 41.5509C706.144 19.106 688.157 1.66946 665.719 1.66946H610.274V131.516H671.097C697.614 131.516 711.336 113.152 711.522 90.5216C711.522 79.0209 706.515 69.3752 695.945 63.9958C702.25 58.8019 706.144 49.3417 706.144 41.5509ZM668.686 79.9484C682.038 79.9484 682.223 102.022 668.872 102.022H642.355V79.9484H668.686ZM663.123 31.3487C676.475 31.3487 676.475 52.3096 663.309 52.3096H642.355V31.3487H663.123Z" fill="white"/>
<path d="M819.917 131.516H852.368V126.693L793.771 0H779.492L721.08 126.693V131.516H753.531L761.134 115.192H812.314L819.917 131.516ZM801.559 86.8117H771.889L786.539 52.6806L801.559 86.8117Z" fill="white"/>
<path d="M953.6 85.5132C986.422 63.2538 977.15 1.85495 926.155 1.66946C907.241 1.66946 887.956 1.66946 869.227 1.66946C869.227 45.0753 869.227 88.2957 869.227 131.516C879.982 131.516 891.293 131.516 902.42 131.516V93.304H919.665L941.917 131.516H979.004V126.693L953.6 85.5132ZM926.155 63.8103H902.42C902.42 53.4226 902.42 41.9219 902.42 31.3487C910.208 31.3487 918.367 31.1632 926.155 31.3487C945.07 31.5342 944.142 63.8103 926.155 63.8103Z" fill="white"/>
<path d="M1087.57 131.516H1120.02V126.693L1061.42 0H1047.14L988.729 126.693V131.516H1021.18L1028.78 115.192H1079.96L1087.57 131.516ZM1069.21 86.8117H1039.54L1054.19 52.6806L1069.21 86.8117Z" fill="white"/>
<path d="M1147.47 31.3487V131.516C1158.41 131.516 1169.35 131.516 1180.29 131.516V31.3487H1212C1212 21.3319 1212 11.5007 1212 1.66946H1115.57C1115.57 11.5007 1115.57 21.3319 1115.57 31.3487H1147.47Z" fill="white"/>
</g>
</svg>
