<svg width="154" height="227" viewBox="0 0 154 227" fill="none" xmlns="http://www.w3.org/2000/svg">
<g opacity="0.3">
<path d="M115.5 182.138C110.964 178.868 105.47 177.33 99.9123 177.907L94.2907 178.42C93.7157 178.484 93.3963 179.189 93.7157 179.638L98.9541 187.075C102.851 192.588 109.175 195.858 115.947 195.858H119.588V215.732L115.5 212.783C110.964 209.513 105.47 207.975 99.9123 208.552L94.2907 209.065C93.7157 209.129 93.3963 209.834 93.7157 210.283L98.9541 217.719C102.851 223.233 109.175 226.503 115.947 226.503H119.588H123.741H127.893H131.534C138.306 226.503 144.63 223.233 148.527 217.719L153.765 210.283C154.149 209.77 153.829 209.065 153.19 209.065L147.569 208.552C142.011 208.039 136.453 209.577 131.981 212.783L127.893 215.732V195.858H131.534C138.306 195.858 144.63 192.588 148.527 187.075L153.765 179.638C154.149 179.125 153.829 178.42 153.19 178.42L147.569 177.907C142.011 177.394 136.453 178.933 131.981 182.138L127.893 185.087V165.213H131.534C138.306 165.213 144.63 161.943 148.527 156.43L153.765 148.993C154.149 148.48 153.829 147.775 153.19 147.775L147.569 147.262C142.011 146.749 136.453 148.288 131.981 151.493L127.893 154.442V134.568H131.534C138.306 134.568 144.63 131.298 148.527 125.785L153.765 118.348C154.149 117.835 153.829 117.13 153.19 117.13L147.569 116.617C142.011 116.104 136.453 117.643 131.981 120.848L127.893 123.798V103.923H131.534C138.306 103.923 144.63 100.654 148.527 95.1401L153.765 87.7033C154.149 87.1904 153.829 86.4852 153.19 86.4852L147.569 85.9723C142.011 85.4594 136.453 86.9981 131.981 90.2036L127.893 93.1527V73.2784H131.534C138.306 73.2784 144.63 70.0088 148.527 64.4953L153.765 57.0584C154.149 56.5456 153.829 55.8403 153.19 55.8403L147.569 55.3275C142.011 54.8146 136.453 56.3532 131.981 59.5588L127.893 62.5078V36.479C127.893 34.171 126.04 32.3118 123.741 32.3118C121.441 32.3118 119.588 34.171 119.588 36.479V62.3155L115.5 59.3664C110.964 56.0968 105.47 54.5581 99.9123 55.1351L94.2907 55.648C93.7157 55.7121 93.3963 56.4173 93.7157 56.8661L98.9541 64.3029C102.851 69.8164 109.175 73.0861 115.947 73.0861H119.588V92.9603L115.5 90.0113C110.964 86.7416 105.47 85.203 99.9123 85.78L94.2907 86.2929C93.7157 86.357 93.3963 87.0622 93.7157 87.511L98.9541 94.9478C102.851 100.461 109.175 103.731 115.947 103.731H119.588V123.605L115.5 120.656C110.964 117.386 105.47 115.848 99.9123 116.425L94.2907 116.938C93.7157 117.002 93.3963 117.707 93.7157 118.156L98.9541 125.593C102.851 131.106 109.175 134.376 115.947 134.376H119.588V154.25L115.5 151.301C110.964 148.031 105.47 146.493 99.9123 147.07L94.2907 147.583C93.7157 147.647 93.3963 148.352 93.7157 148.801L98.9541 156.237C102.851 161.751 109.175 165.021 115.947 165.021H119.588V184.895L115.5 182.138Z" fill="#057137"/>
<ellipse cx="123.677" cy="22.2463" rx="4.15237" ry="4.16719" fill="#057137"/>
<ellipse cx="123.677" cy="10.9629" rx="2.36366" ry="2.37209" fill="#057137"/>
<ellipse cx="123.677" cy="1.47454" rx="1.4693" ry="1.47454" fill="#057137"/>
<path d="M115.5 182.138C110.964 178.868 105.47 177.33 99.9123 177.907L94.2907 178.42C93.7157 178.484 93.3963 179.189 93.7157 179.638L98.9541 187.075C102.851 192.588 109.175 195.858 115.947 195.858H119.588V215.732L115.5 212.783C110.964 209.513 105.47 207.975 99.9123 208.552L94.2907 209.065C93.7157 209.129 93.3963 209.834 93.7157 210.283L98.9541 217.719C102.851 223.233 109.175 226.503 115.947 226.503H119.588H123.741H127.893H131.534C138.306 226.503 144.63 223.233 148.527 217.719L153.765 210.283C154.149 209.77 153.829 209.065 153.19 209.065L147.569 208.552C142.011 208.039 136.453 209.577 131.981 212.783L127.893 215.732V195.858H131.534C138.306 195.858 144.63 192.588 148.527 187.075L153.765 179.638C154.149 179.125 153.829 178.42 153.19 178.42L147.569 177.907C142.011 177.394 136.453 178.933 131.981 182.138L127.893 185.087V165.213H131.534C138.306 165.213 144.63 161.943 148.527 156.43L153.765 148.993C154.149 148.48 153.829 147.775 153.19 147.775L147.569 147.262C142.011 146.749 136.453 148.288 131.981 151.493L127.893 154.442V134.568H131.534C138.306 134.568 144.63 131.298 148.527 125.785L153.765 118.348C154.149 117.835 153.829 117.13 153.19 117.13L147.569 116.617C142.011 116.104 136.453 117.643 131.981 120.848L127.893 123.798V103.923H131.534C138.306 103.923 144.63 100.654 148.527 95.1401L153.765 87.7033C154.149 87.1904 153.829 86.4852 153.19 86.4852L147.569 85.9723C142.011 85.4594 136.453 86.9981 131.981 90.2036L127.893 93.1527V73.2784H131.534C138.306 73.2784 144.63 70.0088 148.527 64.4953L153.765 57.0584C154.149 56.5456 153.829 55.8403 153.19 55.8403L147.569 55.3275C142.011 54.8146 136.453 56.3532 131.981 59.5588L127.893 62.5078V36.479C127.893 34.171 126.04 32.3118 123.741 32.3118C121.441 32.3118 119.588 34.171 119.588 36.479V62.3155L115.5 59.3664C110.964 56.0968 105.47 54.5581 99.9123 55.1351L94.2907 55.648C93.7157 55.7121 93.3963 56.4173 93.7157 56.8661L98.9541 64.3029C102.851 69.8164 109.175 73.0861 115.947 73.0861H119.588V92.9603L115.5 90.0113C110.964 86.7416 105.47 85.203 99.9123 85.78L94.2907 86.2929C93.7157 86.357 93.3963 87.0622 93.7157 87.511L98.9541 94.9478C102.851 100.461 109.175 103.731 115.947 103.731H119.588V123.605L115.5 120.656C110.964 117.386 105.47 115.848 99.9123 116.425L94.2907 116.938C93.7157 117.002 93.3963 117.707 93.7157 118.156L98.9541 125.593C102.851 131.106 109.175 134.376 115.947 134.376H119.588V154.25L115.5 151.301C110.964 148.031 105.47 146.493 99.9123 147.07L94.2907 147.583C93.7157 147.647 93.3963 148.352 93.7157 148.801L98.9541 156.237C102.851 161.751 109.175 165.021 115.947 165.021H119.588V184.895L115.5 182.138Z" fill="#057137"/>
<mask id="mask0" mask-type="alpha" maskUnits="userSpaceOnUse" x="93" y="32" width="61" height="195">
<path fill-rule="evenodd" clip-rule="evenodd" d="M115.5 182.138C110.964 178.868 105.47 177.33 99.9123 177.907L94.2907 178.42C93.7157 178.484 93.3963 179.189 93.7157 179.638L98.9541 187.075C102.851 192.588 109.175 195.858 115.947 195.858H119.588V215.732L115.5 212.783C110.964 209.513 105.47 207.975 99.9123 208.552L94.2907 209.065C93.7157 209.129 93.3963 209.834 93.7157 210.283L98.9541 217.719C102.851 223.233 109.175 226.503 115.947 226.503H119.588H123.741H127.893H131.534C138.306 226.503 144.63 223.233 148.527 217.719L153.765 210.283C154.149 209.77 153.829 209.065 153.19 209.065L147.569 208.552C142.011 208.039 136.453 209.577 131.981 212.783L127.893 215.732V195.858H131.534C138.306 195.858 144.63 192.588 148.527 187.075L153.765 179.638C154.149 179.125 153.829 178.42 153.19 178.42L147.569 177.907C142.011 177.394 136.453 178.933 131.981 182.138L127.893 185.087V165.213H131.534C138.306 165.213 144.63 161.943 148.527 156.43L153.765 148.993C154.149 148.48 153.829 147.775 153.19 147.775L147.569 147.262C142.011 146.749 136.453 148.288 131.981 151.493L127.893 154.442V134.568H131.534C138.306 134.568 144.63 131.298 148.527 125.785L153.765 118.348C154.149 117.835 153.829 117.13 153.19 117.13L147.569 116.617C142.011 116.104 136.453 117.643 131.981 120.848L127.893 123.798V103.923H131.534C138.306 103.923 144.63 100.654 148.527 95.1401L153.765 87.7033C154.149 87.1904 153.829 86.4852 153.19 86.4852L147.569 85.9723C142.011 85.4594 136.453 86.9981 131.981 90.2036L127.893 93.1527V73.2784H131.534C138.306 73.2784 144.63 70.0088 148.527 64.4953L153.765 57.0584C154.149 56.5456 153.829 55.8403 153.19 55.8403L147.569 55.3275C142.011 54.8146 136.453 56.3532 131.981 59.5588L127.893 62.5078V36.479C127.893 34.171 126.04 32.3118 123.741 32.3118C121.441 32.3118 119.588 34.171 119.588 36.479V62.3155L115.5 59.3664C110.964 56.0968 105.47 54.5581 99.9123 55.1351L94.2907 55.648C93.7157 55.7121 93.3963 56.4173 93.7157 56.8661L98.9541 64.3029C102.851 69.8164 109.175 73.0861 115.947 73.0861H119.588V92.9603L115.5 90.0113C110.964 86.7416 105.47 85.203 99.9123 85.78L94.2907 86.2929C93.7157 86.357 93.3963 87.0622 93.7157 87.511L98.9541 94.9478C102.851 100.461 109.175 103.731 115.947 103.731H119.588V123.605L115.5 120.656C110.964 117.386 105.47 115.848 99.9123 116.425L94.2907 116.938C93.7157 117.002 93.3963 117.707 93.7157 118.156L98.9541 125.593C102.851 131.106 109.175 134.376 115.947 134.376H119.588V154.25L115.5 151.301C110.964 148.031 105.47 146.493 99.9123 147.07L94.2907 147.583C93.7157 147.647 93.3963 148.352 93.7157 148.801L98.9541 156.237C102.851 161.751 109.175 165.021 115.947 165.021H119.588V184.895L115.5 182.138Z" fill="white"/>
</mask>
<g mask="url(#mask0)">
<rect x="162.14" y="241.461" width="38.4573" height="209.321" transform="rotate(-180 162.14 241.461)" fill="#057137"/>
</g>
<path d="M67.5878 189.895C69.5681 189.895 71.4207 191.178 72.0595 193.037L78.2561 210.347C78.4478 210.283 78.5756 210.154 78.7672 210.026L81.6419 207.782C84.7083 205.346 85.411 200.794 83.1751 197.525C82.4085 196.435 82.0252 195.088 82.0252 193.806V188.421C82.0252 187.395 82.2807 186.433 82.664 185.536L85.6665 179.317C86.3053 178.035 86.6248 176.56 86.6248 175.15V150.403C86.6248 148.544 85.1555 147.07 83.3029 147.07H74.4232C72.5706 147.07 71.1013 148.544 71.1013 150.403V157.84C71.1013 157.968 71.0374 158.032 70.9735 158.161L58.5164 169.188C57.8137 169.829 57.3665 170.726 57.3665 171.688V182.202C57.3665 182.266 57.3027 182.394 57.3027 182.459L52.5115 188.036C52.0643 188.549 51.8088 189.19 51.7449 189.895H67.5878Z" fill="#057137"/>
<ellipse cx="45.7421" cy="160.219" rx="3.00867" ry="3.00722" transform="rotate(-48.8922 45.7421 160.219)" fill="#057137"/>
<ellipse cx="33.4302" cy="174.428" rx="4.481" ry="4.47884" transform="rotate(-48.8922 33.4302 174.428)" fill="#057137"/>
<ellipse cx="21.0283" cy="188.644" rx="3.00867" ry="3.00722" transform="rotate(-48.8922 21.0283 188.644)" fill="#057137"/>
<path d="M24.5309 226.567C24.9142 226.439 25.2336 226.31 25.553 226.182L31.4941 221.63C32.3246 220.989 33.3467 220.669 34.3688 220.669H42.3541C43.1207 220.669 43.6957 220.027 43.6957 219.322V210.603C43.6957 207.975 45.8038 205.859 48.423 205.859H57.3666C59.9857 205.859 62.0939 207.975 62.0939 210.603V216.309C62.0939 217.527 61.1356 218.489 59.9219 218.489C58.7081 218.489 57.7498 217.527 57.7498 216.309V210.603C57.7498 210.411 57.5582 210.219 57.3666 210.219H49.7645C48.8063 210.219 48.0397 210.988 48.0397 211.95V223.169C48.0397 224.131 48.8063 224.9 49.7645 224.9H68.546C68.9932 224.708 69.3765 224.515 69.8237 224.323L75.7009 217.463C75.7647 217.399 75.7647 217.335 75.7647 217.207C75.7647 217.142 75.7647 217.142 75.7647 217.078L68.0349 195.409C67.7794 194.704 67.1406 194.255 66.374 194.255H45.5483C45.1011 194.447 44.7178 194.576 44.3345 194.768L34.6882 204.577C33.7939 205.474 32.5801 205.987 31.3025 205.987H19.9952C19.5481 206.18 19.1648 206.308 18.7176 206.5L7.15485 218.617H1.72483C0.766591 218.617 0 219.386 0 220.348V224.772C0 225.733 0.766591 226.503 1.72483 226.503H24.5309V226.567Z" fill="#057137"/>
</g>
</svg>
